<svg xmlns="http://www.w3.org/2000/svg" width="70.789" height="26.154" viewBox="0 0 70.789 26.154">
  <g id="logo" transform="translate(-138.92 -36)">
    <g id="Group_27" data-name="Group 27" transform="translate(-2)">
      <path id="Path_42" data-name="Path 42" d="" transform="translate(173 57)" fill="#2c2c2c"/>
      <path id="Path_41" data-name="Path 41" d="M23.091,20.071a3.051,3.051,0,0,0-1.685.507l-4.621-4.643a.611.611,0,0,0-.128-.1,4.479,4.479,0,0,0-.844-6.265l1.9-3.344a3.18,3.18,0,1,0-1.067-.6l-1.9,3.34a4.474,4.474,0,0,0-4.371.586c-.009-.011-.017-.023-.027-.033L7.746,6.9a2.042,2.042,0,1,0-.855.879l2.59,2.6c.01.01.022.018.033.027a4.473,4.473,0,0,0-.2,5.159L5.035,19.28a3.175,3.175,0,1,0,.829.9L10.117,16.5a4.475,4.475,0,0,0,5.707.181.6.6,0,0,0,.092.121l4.621,4.643a3.067,3.067,0,1,0,2.555-1.372Z" transform="translate(140.92 35.946)" fill="#0cda90"/>
    </g>
  </g>
</svg>
